<?xml version="1.0" encoding="utf-8"?>
<!-- Generator: Adobe Illustrator 21.0.1, SVG Export Plug-In . SVG Version: 6.00 Build 0)  -->
<svg version="1.1" id="Layer_1" xmlns="http://www.w3.org/2000/svg" xmlns:xlink="http://www.w3.org/1999/xlink" x="0px" y="0px"
	 viewBox="0 0 503.2 368.8" style="enable-background:new 0 0 503.2 368.8;" xml:space="preserve">
<style type="text/css">
	.st0{fill:#AA9D89;}
</style>
<g>
	<g>
		<path d="M338.1,195.7l0.1-1c22.4-55.5,28.3-71.7,31.7-83.1h0.5c3.3,11.4,8.7,27.6,30.4,83.1l0.1,1H338.1z M417.7,241.3
			c15,37.5,21.8,54.3,22.5,56.8v1.1h63v-1.1c-1-2.6-8-19.3-55.6-131.2L376.5,0h-7.7l-72.3,166.7c-48.6,112.2-56.2,129-57.3,131.4
			v1.1h58v-1.1c1-2.5,7.9-19.3,23.3-56.8H417.7z"/>
	</g>
	<polygon class="st0" points="124.8,5.4 88.9,5.4 0,5.4 0,52.8 1.8,52.8 25.1,52.8 80.3,52.8 80.3,167.1 80.3,298.2 80.3,299.1 
		136.4,299.1 136.4,298.3 136.4,167.1 136.4,52.8 192,52.8 215.3,52.8 216.7,52.8 216.7,5.4 	"/>
	<g>
		<path class="st0" d="M221.1,358.5v10v0.1h11.4v-3.6h0h-2.1h-5v-0.4V359h3.9h2.3h0.1v-3.6h-0.1h-2.4h-3.8v-5.6h3.6h3.3h0.1v-3.6
			h-11.2v0v9.4V358.5z M200.2,353c0,1.6-0.9,2.6-1.7,3c-0.6,0.3-1.3,0.6-2.1,0.6c-0.3,0-0.6,0-0.8,0v-6.7c0.2,0,0.6,0,1.1,0
			C198.8,349.7,200.2,350.9,200.2,353L200.2,353z M191.6,358.5v10v0.1h4.1v-0.1v-7.7v-1.1h0.7c2.4,3.5,4.4,6.5,6,8.9h0.8h4.1v-0.1
			c-0.1-0.2-1-1.5-1.7-2.4c-4.6-6.5-5-7-5.2-7.3v-0.1c0.5-0.2,1.1-0.5,1.6-1c1-0.7,2.4-2.5,2.4-5.1c0-3.9-2.6-5.5-4.2-6
			c-1.3-0.4-2.7-0.5-4.4-0.5c-0.7,0-1.8,0-2.5,0.1c-0.6,0-1.3,0.1-1.7,0.1v0.1v9.3V358.5z M174.6,357.4c0,4.2-2.9,7.6-7.1,7.6
			c-4.2,0-7.3-3.4-7.3-7.5c0-4.3,3-7.6,7.2-7.6C171.5,349.9,174.6,353.1,174.6,357.4L174.6,357.4z M179,357.2
			c0-6.4-4.8-11.3-11.3-11.3c-6.7,0-11.8,5-11.8,11.5c0,6.3,5,11.4,11.5,11.4C174.1,368.8,179,363.7,179,357.2L179,357.2z
			 M139.4,357.1c0,2.9-1.2,4.9-2.8,6.2c-1.2,1-2.9,1.5-4.5,1.5c-0.5,0-1.2,0-1.6-0.1c0,0,0,0,0,0V350c0.4,0,1.1-0.1,1.7-0.1
			c1.9,0,3.5,0.5,4.7,1.4C138.5,352.6,139.4,354.7,139.4,357.1L139.4,357.1z M143.8,356.9c0-3.4-1.3-7-4.5-9
			c-1.9-1.2-4.4-1.9-7.6-1.9c-1,0-2,0-3.2,0.1c-1.1,0-1.8,0.1-2.4,0.2v0.2v9.1v2.9v9.8v0.1c0.6,0,1.4,0.1,2,0.1
			c0.8,0,2.1,0.1,3.3,0.1c3,0,5.7-0.7,7.8-2.2C142.1,364.3,143.8,361.1,143.8,356.9L143.8,356.9z M109.1,357.4
			c0,4.2-2.9,7.6-7.1,7.6c-4.2,0-7.2-3.4-7.2-7.5c0-4.3,3.1-7.6,7.2-7.6C106.1,349.9,109.1,353.1,109.1,357.4L109.1,357.4z
			 M113.5,357.2c0-6.4-4.8-11.3-11.3-11.3c-6.8,0-11.8,5-11.8,11.5c0,6.3,5,11.4,11.5,11.4C108.6,368.8,113.5,363.7,113.5,357.2
			L113.5,357.2z M65.9,358.5v10v0.1h11.4v-3.6h0h-2.1h-5c0-0.1,0-0.3,0-0.4V359H74h2.3h0.1v-3.6h-0.1H74h-3.8v-5.6h3.6H77h0.1v-3.6
			H65.9v0v9.4V358.5z M49.3,355.6v-9.4v0h-4.3v0v8.4v0.8h-9.5v-0.8v-8.4v0h-4.3v0v9.4v2.9v10v0h4.3v0v-8.6V359h9.5v0.8v8.6v0h4.3v0
			v-10V355.6z M6.1,358.5v10v0.1h4.3v0v-10v-8.7h4.2h1.8h0.1v-3.6h-7H6.7H0v3.6h0.1h1.8h4.2V358.5z"/>
		<path d="M496.2,353c0,1.6-0.9,2.6-1.7,3c-0.6,0.4-1.3,0.6-2.1,0.6c-0.3,0-0.6,0-0.8,0v-6.7c0.2,0,0.6,0,1.1,0
			C494.8,349.7,496.2,350.9,496.2,353L496.2,353z M487.6,358.5v9.9v0.1h4.1v-0.1v-7.7v-1.1h0.7c2.4,3.5,4.4,6.5,6,8.9h0.8h4.1v-0.1
			c-0.1-0.2-1-1.5-1.7-2.3c-4.6-6.5-5-7-5.2-7.3v-0.1c0.5-0.1,1.1-0.5,1.6-1c1-0.7,2.4-2.4,2.4-5.1c0-3.9-2.6-5.5-4.2-6
			c-1.3-0.4-2.7-0.5-4.4-0.5c-0.7,0-1.8,0-2.4,0.1c-0.7,0-1.3,0.1-1.8,0.1v0.1v9.3V358.5z M461.1,358.5v9.9v0.1h11.4v-3.6h-0.1h-2.1
			h-5c0-0.1,0-0.3,0-0.4V359h3.9h2.3h0.1v-3.6h-0.1h-2.3h-3.8v-5.6h3.6h3.3h0v-3.6h-11.2v0v9.4V358.5z M443.2,357.1
			c0,2.9-1.1,4.9-2.8,6.2c-1.2,1-2.9,1.5-4.5,1.5c-0.5,0-1.2,0-1.6-0.1c0,0-0.1,0-0.1,0V350c0.5,0,1.1-0.1,1.7-0.1
			c1.9,0,3.5,0.5,4.7,1.4C442.2,352.6,443.2,354.7,443.2,357.1L443.2,357.1z M447.6,356.9c0-3.4-1.3-7-4.5-9
			c-1.9-1.2-4.4-1.9-7.6-1.9c-1,0-2,0-3.1,0.1c-1.2,0-1.9,0.1-2.4,0.2v0.2v9.1v2.9v9.9v0c0.6,0,1.3,0.1,1.9,0.1c0.8,0,2.1,0,3.4,0
			c3,0,5.7-0.7,7.7-2.2C445.9,364.3,447.6,361.1,447.6,356.9L447.6,356.9z M415.6,355.6v-9.4v0h-4v0v9c0,2.6,0,3.5,0,4.8h0
			c-1.3-1.5-2.5-2.6-3.7-3.9c-1.9-2-5-5-10.2-10.2h-0.5v12.5v10v0.1h4v-0.1V359c0-2.2,0-3.1,0-4.2h0.1c1.6,1.8,2.6,2.7,4,4.1
			c2,2,4.9,5,10,9.9h0.5V355.6z M373.4,360.6L373.4,360.6c1.7-4.3,2.1-5.5,2.4-6.4h0c0.3,0.9,0.7,2.1,2.3,6.3v0.1H373.4z
			 M379.4,364.1c1.2,2.9,1.7,4.1,1.7,4.3v0.1h4.8v-0.1c-0.1-0.2-0.6-1.5-4.2-9.9l-5.4-12.7h-0.6l-5.5,12.6c-3.7,8.5-4.3,9.8-4.4,10
			v0.1h4.4v-0.1c0.1-0.2,0.6-1.5,1.8-4.3H379.4z M341.5,359.3c-5.3,7.7-6.1,8.9-6.2,9.1v0.1h5.3v-0.1c0.2-0.2,0.9-1.4,2.7-4.3
			c0.9-1.3,1.5-2.4,2.1-3.5h0c0.6,1.1,1.4,2.2,2.3,3.6c1.7,2.7,2.6,4.1,2.7,4.2v0.1h5.6v-0.1c-0.2-0.2-0.9-1.4-6.1-8.9l-1.7-2.4
			l1.4-2.1c4.9-7.2,5.7-8.4,5.9-8.7v0h-5.1v0c-0.2,0.3-1.1,1.5-2.8,4.1c-0.6,0.9-1.4,2-2.1,3h0c-0.7-1-1.4-2.1-2-3
			c-1.7-2.6-2.6-3.9-2.8-4.2v0H335v0c0.2,0.3,1.1,1.5,6.2,8.7l1.7,2.4L341.5,359.3z M310.6,358.5v9.9v0.1H322v-3.6H322h-2.1h-4.9
			c0-0.1,0-0.3,0-0.4V359h3.9h2.3h0v-3.6h0h-2.4h-3.8v-5.6h3.6h3.3h0.1v-3.6h-11.2v0v9.4V358.5z M285.2,358.5v9.9v0.1h11.3v-3.6
			h-0.1h-0.8h-1.2h-4.8c-0.1,0-0.1,0-0.1-0.2v-6.2v-2.9v-9.3v-0.1h-4.3v0.1v9.3V358.5z M260.4,360.6L260.4,360.6
			c1.7-4.3,2.1-5.5,2.4-6.4h0c0.2,0.9,0.7,2.1,2.3,6.3l0,0.1H260.4z M266.4,364.1c1.1,2.9,1.6,4.1,1.7,4.3v0.1h4.8v-0.1
			c-0.1-0.2-0.6-1.5-4.2-9.9l-5.4-12.7h-0.6l-5.5,12.6c-3.7,8.5-4.3,9.8-4.3,10v0.1h4.4v-0.1c0.1-0.2,0.6-1.5,1.8-4.3H266.4z"/>
	</g>
	<path d="M478.9,5.4c13.4,0,24.3,10.9,24.3,24.4c0,13.5-10.9,24.4-24.3,24.4c-13.3,0-24.4-10.9-24.4-24.4
		C454.5,16.3,465.5,5.4,478.9,5.4 M478.9,49.8c11,0,20.1-9,20.1-20.1c0-11-9-20-20.1-20c-11.1,0-20,9-20,20
		C458.9,40.8,467.8,49.8,478.9,49.8 M469.5,15.6h10.7c6.8,0,9.8,3.1,9.8,8.4c0,4.9-2.7,7.2-6.6,7.7l7.3,11.8h-5.3l-7-11.3h-3.7v11.3
		h-5.2V15.6z M474.7,27.9h3.7c3.1,0,6.7-0.3,6.7-4c0-3.7-3.6-3.9-6.7-3.9h-3.7V27.9z"/>
</g>
</svg>
